<?xml version="1.0" encoding="UTF-8" standalone="no"?>
<!-- Created with Inkscape (http://www.inkscape.org/) -->

<svg
  width="80"
  height="80"
  viewBox="0 0 21.166666 21.166667"
  version="1.1"
  xmlns="http://www.w3.org/2000/svg"
>
  <style>
    #leaves {
    fill: #65a30d;
    }
    #letter {
    fill: #27272a;
    }
    @media (prefers-color-scheme: dark) {
    #letter {
    fill: white;
    }
    }
  </style>
  <g
    fill-rule="evenodd"
    transform="matrix(0.21350999,0,0,0.21350999,3.9970612,2.5851476e-7)">
    <path
      id="letter"
      d="M 1.35,77.38 C -0.23,72.46 0,67.38 0,62.32 V 21.6 c 0,-0.78 0.18,-1 1,-1 2.76,0.06 5.51,0 8.27,0 a 8.25,8.25 0 0 1 8.31,8.07 v 39.39 a 12.77,12.77 0 0 0 7,11.89 13.22,13.22 0 0 0 17.94,-5.22 13,13 0 0 0 1.06,-2.53 12.6,12.6 0 0 0 -2.39,-12.2 13,13 0 0 0 -11,-5 h -5 c -0.53,0 -0.72,-0.17 -0.72,-0.72 V 38.1 c 0,-0.51 0.18,-0.66 0.68,-0.66 4.08,0 8.19,-0.26 12.22,0.65 A 30.87,30.87 0 0 1 39.77,97.81 29.92,29.92 0 0 1 25.64,98.66 30.11,30.11 0 0 1 15.15,94.84 30.72,30.72 0 0 1 2.39,80.15 L 1.86,78.83 c -0.21,-0.47 -0.31,-1 -0.51,-1.45"/>
    <path
      id="leaves"
      d="M 20.38,0 A 17.11,17.11 0 0 1 30.19,12.51 17.55,17.55 0 0 1 26.79,26.6 17.17,17.17 0 0 1 17,14.08 17.52,17.52 0 0 1 20.26,0.16 Z M 41.67,17.87 A 17.12,17.12 0 0 1 56,19.6 17.18,17.18 0 0 1 34.67,31.21 17.52,17.52 0 0 1 30.48,29.33 17.18,17.18 0 0 1 41.67,17.87 Z"
    />
  </g>
</svg>
