 <?xml version="1.0" standalone="no"?>
<!DOCTYPE svg PUBLIC "-//W3C//DTD SVG 20010904//EN"
 "http://www.w3.org/TR/2001/REC-SVG-20010904/DTD/svg10.dtd">
<svg version="1.0" xmlns="http://www.w3.org/2000/svg"
 width="699.000000pt" height="699.000000pt" viewBox="0 0 699.000000 699.000000"
 preserveAspectRatio="xMidYMid meet">
<metadata>
Created by potrace 1.14, written by Peter Selinger 2001-2017
</metadata>
<g transform="translate(0.000000,699.000000) scale(0.100000,-0.100000)"
fill="#000000" stroke="none">
<path d="M2703 6913 c-137 -210 -205 -435 -204 -683 0 -95 3 -134 17 -210 2
-14 7 -41 10 -60 10 -59 61 -201 102 -285 73 -148 201 -306 320 -396 31 -24
59 -46 62 -49 3 -3 34 -24 70 -46 81 -50 130 -70 138 -58 4 6 21 30 38 54 33
47 97 168 126 235 103 246 114 580 27 846 -97 297 -308 548 -586 696 -34 18
-63 33 -65 33 -2 0 -27 -35 -55 -77z"/>
<path d="M4529 5786 c-2 -2 -29 -6 -60 -9 -90 -9 -225 -46 -306 -83 -17 -8
-34 -14 -37 -14 -13 0 -180 -102 -233 -143 -125 -96 -255 -249 -330 -387 -42
-79 -96 -221 -86 -230 36 -35 227 -115 340 -144 99 -25 124 -28 268 -31 186
-5 318 19 485 88 307 126 561 392 673 704 l26 73 -22 11 c-12 7 -36 20 -52 29
-84 47 -259 105 -375 125 -40 7 -286 16 -291 11z"/>
<path d="M1340 5523 c-20 -14 -20 -24 -17 -1781 2 -972 7 -1780 10 -1797 3
-16 9 -54 12 -84 36 -294 166 -630 345 -895 247 -367 593 -646 1004 -811 95
-38 252 -86 329 -101 12 -2 45 -8 72 -14 150 -30 251 -38 445 -35 102 2 196 6
210 8 14 3 59 11 100 17 109 16 314 70 385 101 11 5 43 17 70 28 593 228 1091
772 1272 1391 27 94 60 235 67 296 3 21 9 66 13 99 10 76 10 380 1 465 -62
551 -327 1056 -740 1410 -100 87 -101 87 -193 151 -79 54 -206 129 -275 161
-99 46 -151 69 -201 87 -69 25 -216 69 -249 75 -14 2 -43 9 -65 14 -55 14
-171 30 -285 38 -115 8 -553 8 -579 -1 -10 -3 -21 -13 -23 -23 -2 -9 -3 -282
-3 -605 1 -480 4 -590 15 -597 7 -4 124 -8 259 -8 300 0 363 -7 497 -55 271
-99 507 -354 588 -637 47 -167 42 -354 -15 -530 -107 -328 -369 -562 -714
-636 -60 -13 -280 -13 -345 0 -88 18 -212 62 -272 97 -27 16 -51 29 -54 29
-14 0 -155 114 -200 162 -90 94 -177 245 -205 351 -37 142 -37 137 -38 1637
-1 806 -4 1483 -7 1505 -16 120 -74 236 -167 329 -77 77 -156 125 -253 152
-82 23 -763 29 -794 7z"/>
</g>
</svg>
